<svg width="150" height="45" viewBox="0 0 150 45" fill="none" xmlns="http://www.w3.org/2000/svg">
<path d="M19.877 0.389251L19.4838 0.774031L19.4748 5.32063C19.4704 7.82392 19.4659 9.99549 19.4614 10.1459V10.4245L21.0791 10.4378L22.7013 10.4466L22.7103 12.0521L22.7237 13.6531L27.617 13.6664L32.506 13.6752L32.8769 13.3126C33.0824 13.1091 33.2478 12.9322 33.2478 12.9145C33.2478 12.8924 31.067 12.8791 28.3991 12.8791H23.5504L23.5415 11.2737L23.5281 9.67263L21.9103 9.65936L20.2882 9.65052L20.2792 4.82528L20.2658 4.76167e-05L19.877 0.389251Z" fill="#009CA3"/>
<path d="M14.9478 5.22781L14.5903 5.58163L14.568 10.0177L14.5456 14.4493L10.0768 14.4625L5.60796 14.4714L5.24152 14.8341C5.03595 15.0375 4.87061 15.2144 4.87061 15.2321C4.87061 15.2498 7.04693 15.2719 9.71035 15.2763L14.5456 15.2896L14.568 16.8818L14.5903 18.474L16.1991 18.4961L17.8079 18.5182L17.8302 28.9692L17.8526 39.4158L18.2414 39.031L18.6346 38.6418L18.6435 28.58L18.657 18.5182L23.1481 18.5049L27.6393 18.4961L28.0058 18.1334C28.2113 17.93 28.3767 17.7531 28.3767 17.7354C28.3767 17.7177 26.1914 17.6956 23.519 17.6912L18.657 17.6779L18.6435 16.0769L18.6346 14.4714L17.0124 14.4625L15.3947 14.4493L15.3813 9.65942C15.3768 7.02788 15.3545 4.87399 15.3366 4.87399C15.3187 4.87399 15.1445 5.03321 14.9478 5.22781ZM17.8079 16.4837V17.6779H16.6013H15.3947L15.3813 16.5324C15.3724 15.7186 15.3858 15.3692 15.4215 15.3294C15.4662 15.2763 15.6896 15.2675 16.6415 15.2763L17.8079 15.2896V16.4837Z" fill="#009CA3"/>
<path d="M17.4193 12.428C16.7579 13.0782 16.2217 13.6222 16.2217 13.6443C16.2217 13.662 16.9501 13.6752 17.8439 13.6752H19.4616L20.6905 12.459L21.9194 11.2427H20.266H18.6125L17.4193 12.428Z" fill="#009CA3"/>
<path d="M20.6776 15.6566C20.0206 16.3067 19.4844 16.8507 19.4844 16.8728C19.4844 16.8905 21.6786 16.9038 24.3643 16.9038H29.2443L30.442 15.7229C31.0989 15.0728 31.6396 14.5244 31.6396 14.5067C31.6396 14.4846 29.4409 14.4713 26.7552 14.4713H21.8752L20.6776 15.6566Z" fill="#009CA3"/>
<path d="M12.4993 17.2931L11.3062 18.474L11.3151 20.075L11.3285 21.6716L12.5485 20.4952L13.764 19.3143V17.7088C13.764 16.8287 13.7506 16.1078 13.7283 16.1078C13.7104 16.1078 13.1562 16.6385 12.4993 17.2931Z" fill="#009CA3"/>
<path d="M0.370913 19.6548C0.165347 19.8539 0 20.0308 0 20.0529C0 20.0706 2.17632 20.0927 4.83975 20.0971L9.67502 20.1104L9.68843 21.7114L9.69737 23.3169L11.2972 23.3257L12.8926 23.339L12.906 33.7679C12.9149 42.1667 12.9283 44.1923 12.973 44.1923C13.0043 44.1923 13.1831 44.0375 13.3752 43.8473L13.7238 43.5024L13.7327 33.0204L13.7417 22.5429L12.1239 22.5296L10.5018 22.5208L10.4928 20.9153L10.4794 19.3143L5.60839 19.3054L0.737358 19.2922L0.370913 19.6548Z" fill="#009CA3"/>
<path d="M15.7615 20.5217L14.5684 21.7026V32.1536C14.5684 37.8988 14.5818 42.6002 14.6041 42.6002C14.622 42.6002 15.1627 42.0783 15.8062 41.4414L16.9771 40.2782L17.0083 29.8051C17.0262 23.5911 17.0217 19.3364 16.9994 19.3364C16.9771 19.3364 16.4229 19.8672 15.7615 20.5217Z" fill="#009CA3"/>
<path d="M40.3234 6.58677C40.2929 6.59058 40.1977 6.60391 40.1139 6.61533C39.7063 6.66864 39.215 6.84762 38.8474 7.0761C37.857 7.69679 37.2495 8.78016 37.2476 9.93588C37.2457 11.44 38.2208 12.7576 39.6549 13.1898C40.0034 13.2964 40.1996 13.3231 40.6091 13.3231C40.9881 13.3231 41.0586 13.3135 41.4776 13.1993L41.628 13.1593V12.75C41.628 12.3673 41.6261 12.3406 41.5957 12.3539C41.4833 12.3996 41.169 12.4986 41.0433 12.5291C40.811 12.5824 40.2891 12.5767 40.0473 12.5177C39.5597 12.3958 39.1712 12.1731 38.8093 11.8094C38.1637 11.1601 37.8989 10.2386 38.1046 9.35897C38.3408 8.35557 39.2073 7.52544 40.1901 7.3636C40.4186 7.32742 40.8167 7.33694 41.0376 7.38454C41.1538 7.4112 41.5061 7.51782 41.6052 7.55971C41.6223 7.56732 41.628 7.47974 41.628 7.15987V6.75242L41.4623 6.70292C41.1652 6.61343 41.0243 6.59058 40.6948 6.58487C40.5215 6.58106 40.3558 6.58297 40.3234 6.58677Z" fill="#002F34"/>
<path d="M81.5305 6.80383C81.4848 6.81335 81.3915 6.84762 81.3229 6.87999C81.1724 6.95043 80.9172 7.12941 80.9229 7.15797C80.9268 7.1713 81.0048 7.27221 81.0963 7.38264L81.2639 7.58636L81.3381 7.52734C81.3781 7.49497 81.46 7.44737 81.5191 7.42072C81.62 7.37502 81.6429 7.37121 81.8028 7.38073C81.919 7.38835 82.0866 7.42072 82.319 7.48165C82.6351 7.56542 82.6789 7.57113 82.8903 7.57304C83.0903 7.57304 83.136 7.56542 83.2465 7.52353C83.3836 7.47213 83.5531 7.37693 83.6445 7.29886L83.7017 7.25126L83.5208 7.0285L83.3379 6.80573L83.2541 6.86095C83.0865 6.97519 82.8923 7.01327 82.6789 6.97709C82.6066 6.96376 82.4028 6.91997 82.2238 6.87808C81.8847 6.79621 81.6714 6.77527 81.5305 6.80383Z" fill="#002F34"/>
<path d="M44.0982 8.45263C43.0393 8.61638 42.2184 9.41034 42.0337 10.448C41.9918 10.6841 41.9937 11.0839 42.0375 11.3162C42.2318 12.3615 43.0488 13.1459 44.1039 13.3059C45.3495 13.4963 46.5494 12.6814 46.8598 11.4362C46.9055 11.2553 46.9112 11.1925 46.9112 10.9164C46.9112 10.6936 46.9017 10.5546 46.8789 10.4366C46.6141 9.11141 45.4047 8.24891 44.0982 8.45263ZM44.8048 9.11903C45.4276 9.24659 45.9323 9.71116 46.1285 10.3357C46.2008 10.568 46.2256 10.7545 46.2123 10.9983C46.1989 11.2572 46.1628 11.4038 46.0561 11.6342C45.959 11.8417 45.8923 11.9426 45.7476 12.0988C45.5381 12.3234 45.2562 12.5005 44.9419 12.6033C44.7915 12.6528 44.7572 12.6566 44.4658 12.6566C44.0925 12.6585 44.0087 12.6395 43.6945 12.4853C43.325 12.3044 43.0793 12.0588 42.8945 11.6875C42.7517 11.4 42.706 11.2077 42.706 10.8878C42.706 10.7507 42.7174 10.5889 42.7308 10.5261C42.8907 9.79684 43.4107 9.27325 44.1249 9.11712C44.2925 9.08095 44.6258 9.08285 44.8048 9.11903Z" fill="#002F34"/>
<path d="M49.292 8.45075C48.9987 8.49644 48.7111 8.60687 48.4483 8.77823C48.3892 8.81821 48.2521 8.94007 48.1416 9.0505C47.9017 9.2923 47.7779 9.48841 47.6788 9.78734C47.5493 10.1796 47.5455 10.2272 47.5379 11.8151L47.5303 13.2393H47.8636H48.1969L48.2045 11.8627C48.2102 10.6898 48.2159 10.4633 48.2426 10.3128C48.3169 9.90158 48.4749 9.62169 48.7549 9.40274C49.2844 8.98767 49.9681 8.98196 50.4938 9.3837C50.7185 9.55505 50.8632 9.75878 50.9528 10.0253C51.0499 10.3186 51.0556 10.4137 51.0556 11.8817V13.2393H51.3984H51.7412V12.1102C51.7393 11.4914 51.7317 10.825 51.7222 10.6308C51.6898 9.97012 51.5832 9.61408 51.3051 9.24661C50.8404 8.62972 50.0767 8.32889 49.292 8.45075Z" fill="#002F34"/>
<path d="M54.3121 8.45073C53.4912 8.5802 52.7732 9.16853 52.4933 9.94535C52.3104 10.4537 52.3199 11.0573 52.5161 11.5542C52.8094 12.293 53.4436 12.8318 54.2169 12.9936C54.3692 13.026 54.4816 13.0355 54.6835 13.0355C55.1444 13.0355 55.4548 12.9441 55.8986 12.6833L56.0262 12.6071V12.2092C56.0262 11.9902 56.0205 11.8113 56.0148 11.8113C56.0091 11.8113 55.9634 11.8436 55.9138 11.8855C55.291 12.4034 54.6073 12.5195 53.9807 12.2149C53.5122 11.9845 53.1865 11.5599 53.0799 11.042C53.0361 10.8231 53.0551 10.4461 53.118 10.25C53.1827 10.0501 53.2189 9.97391 53.316 9.8235C53.5293 9.49411 53.8569 9.25421 54.2493 9.14187C54.375 9.10379 54.4416 9.09808 54.693 9.09808C54.9768 9.09999 54.9958 9.10189 55.1692 9.16091C55.7748 9.37035 56.131 9.80255 56.2452 10.4651C56.3138 10.8688 56.329 12.1178 56.2719 12.7023C56.2129 13.3078 56.0605 13.6733 55.7424 13.9666C55.5272 14.1646 55.3291 14.2655 54.9806 14.3569C54.8244 14.3969 54.7406 14.4064 54.4169 14.414C53.9979 14.4254 53.7788 14.4083 53.4036 14.3321C53.276 14.3074 53.1656 14.2864 53.1599 14.2864C53.1541 14.2864 53.1522 14.4387 53.1541 14.6234L53.1599 14.9623L53.417 15.0042C55.232 15.2955 56.3671 14.7815 56.8071 13.4715C56.8775 13.2602 56.9328 12.9346 56.9594 12.5824C56.9842 12.2397 56.9842 10.9887 56.9594 10.7165C56.9042 10.1148 56.7442 9.65404 56.4604 9.27515C55.9881 8.65065 55.133 8.32316 54.3121 8.45073Z" fill="#002F34"/>
<path d="M59.6162 8.44313C58.8868 8.54975 58.2449 9.0524 57.9897 9.71689C57.8412 10.0996 57.8164 10.4252 57.8164 12.0055V13.2393H58.1478H58.4792L58.4887 11.8817C58.4944 10.7203 58.5001 10.5013 58.5287 10.3452C58.5954 9.97583 58.7154 9.72832 58.9401 9.50745C59.2353 9.21424 59.6162 9.06763 60.0028 9.0981L60.159 9.11143L60.1552 8.77061L60.1495 8.4317L59.94 8.4298C59.8257 8.4279 59.6791 8.43361 59.6162 8.44313Z" fill="#002F34"/>
<path d="M62.2659 8.44316C61.2165 8.58786 60.3918 9.35707 60.1766 10.389C60.1252 10.6365 60.1214 11.0345 60.1671 11.2972C60.2547 11.7942 60.4813 12.2302 60.8356 12.5824C61.1994 12.948 61.6088 13.165 62.1478 13.2812C62.3097 13.3154 62.3992 13.3231 62.7116 13.3231C63.1077 13.3231 63.281 13.3002 63.6258 13.2088C63.9495 13.1212 64.4904 12.9061 64.4771 12.8699C64.4714 12.8585 64.4333 12.7195 64.3895 12.5634C64.3457 12.4053 64.3057 12.2663 64.3019 12.253C64.2962 12.2359 64.2638 12.2435 64.1838 12.2835C64.0257 12.3635 63.6562 12.5082 63.4696 12.5653C63.1039 12.6738 62.5859 12.7024 62.2354 12.63C62.0335 12.59 61.7783 12.4739 61.6107 12.3463L61.5079 12.2721L61.6622 12.1502C61.746 12.0836 62.4754 11.5162 63.281 10.8879C64.0867 10.2596 64.7475 9.73596 64.7475 9.72453C64.7494 9.68645 64.4885 9.31137 64.3704 9.18C64.0467 8.82586 63.6124 8.57834 63.1401 8.47933C62.9192 8.43364 62.4697 8.4146 62.2659 8.44316ZM62.9725 9.06195C63.1629 9.10003 63.2791 9.14763 63.4391 9.25235C63.5686 9.33422 63.841 9.59506 63.8314 9.62362C63.8238 9.64457 61.1175 11.7732 61.0984 11.7732C61.0717 11.7732 60.9308 11.4952 60.8813 11.3448C60.8394 11.2249 60.8356 11.1792 60.8356 10.8783C60.8375 10.4823 60.8775 10.2957 61.0279 9.9968C61.2736 9.51319 61.7726 9.13811 62.2888 9.05053C62.4487 9.02387 62.8182 9.02958 62.9725 9.06195Z" fill="#002F34"/>
<path d="M67.0157 8.45073C66.1949 8.5802 65.4768 9.16853 65.1969 9.94535C65.014 10.4537 65.0236 11.0573 65.2197 11.5542C65.513 12.293 66.1472 12.8318 66.9205 12.9936C67.0729 13.026 67.1852 13.0355 67.3871 13.0355C67.848 13.0355 68.1585 12.9441 68.6022 12.6833L68.7298 12.6071V12.2092C68.7298 11.9902 68.7241 11.8113 68.7184 11.8113C68.7127 11.8113 68.667 11.8436 68.6174 11.8855C67.9947 12.4034 67.3109 12.5195 66.6843 12.2149C66.2158 11.9845 65.8901 11.5599 65.7835 11.042C65.7397 10.8231 65.7587 10.4461 65.8216 10.25C65.8863 10.0501 65.9225 9.97391 66.0196 9.8235C66.233 9.49411 66.5605 9.25421 66.9529 9.14187C67.0786 9.10379 67.1452 9.09808 67.3966 9.09808C67.6804 9.09999 67.6995 9.10189 67.8728 9.16091C68.4784 9.37035 68.8346 9.80255 68.9488 10.4651C69.0174 10.8688 69.0326 12.1178 68.9755 12.7023C68.9165 13.3078 68.7641 13.6733 68.446 13.9666C68.2308 14.1646 68.0328 14.2655 67.6842 14.3569C67.528 14.3969 67.4442 14.4064 67.1205 14.414C66.7015 14.4254 66.4824 14.4083 66.1073 14.3321C65.9796 14.3074 65.8692 14.2864 65.8635 14.2864C65.8578 14.2864 65.8559 14.4387 65.8578 14.6234L65.8635 14.9623L66.1206 15.0042C67.9356 15.2955 69.0707 14.7815 69.5107 13.4715C69.5812 13.2602 69.6364 12.9346 69.663 12.5824C69.6878 12.2397 69.6878 10.9887 69.663 10.7165C69.6078 10.1148 69.4478 9.65404 69.1641 9.27515C68.6917 8.65065 67.8366 8.32316 67.0157 8.45073Z" fill="#002F34"/>
<path d="M72.3672 8.45455C71.6149 8.56879 70.9197 9.07525 70.5674 9.7664C70.2741 10.3414 70.2208 11.0535 70.4265 11.6666C70.7064 12.5005 71.3921 13.1041 72.272 13.2907C72.4739 13.3326 73.0109 13.3383 73.2242 13.2983C73.5366 13.2412 73.887 13.0927 74.1518 12.9042L74.2717 12.8185V12.3996V11.9807L74.1156 12.1121C73.8166 12.3596 73.5442 12.5157 73.249 12.6033C73.0224 12.6719 72.6548 12.6871 72.4224 12.6395C71.733 12.5005 71.2054 11.9769 71.0397 11.2629C70.9902 11.0459 70.994 10.6746 71.0492 10.4499C71.1064 10.2157 71.2683 9.89777 71.4187 9.71689C71.7444 9.33229 72.1844 9.11524 72.6853 9.09429C73.0109 9.07906 73.2471 9.12856 73.5385 9.27517C73.8318 9.41987 74.1041 9.6712 74.2622 9.93966C74.5041 10.3528 74.5384 10.6365 74.5384 12.2435V13.2393H74.8717H75.205V12.1007C75.205 10.8612 75.1936 10.6498 75.0983 10.269C75.045 10.0539 74.9936 9.91681 74.8869 9.70737C74.4298 8.8106 73.3976 8.29652 72.3672 8.45455Z" fill="#002F34"/>
<path d="M77.9496 8.44314C77.3725 8.51739 76.7992 8.82584 76.4297 9.25804C76.1326 9.60647 75.9574 9.96632 75.8679 10.41C75.8146 10.6803 75.8146 11.1011 75.8698 11.3677C75.9688 11.8436 76.1859 12.2549 76.5154 12.5881C76.8982 12.9746 77.2868 13.186 77.82 13.2926L78.0619 13.3421V13.7362V14.1322L78.1343 14.1018C78.2391 14.0561 78.4371 14.058 78.5171 14.1056C78.6162 14.1646 78.6561 14.2522 78.6485 14.4026C78.6428 14.4978 78.6314 14.5454 78.5952 14.5968C78.4695 14.7796 78.2276 14.7986 77.9991 14.6425C77.9686 14.6216 77.9419 14.6101 77.9381 14.6139C77.9343 14.6177 77.8753 14.6977 77.8067 14.791L77.6829 14.9624L77.7248 14.9966C77.9743 15.1947 78.241 15.2594 78.5362 15.1908C78.7914 15.1299 78.9913 14.9681 79.1075 14.7244C79.1742 14.5854 79.1761 14.5759 79.1761 14.3531C79.1761 14.1475 79.1704 14.1151 79.1266 14.0199C79.0999 13.9628 79.0542 13.8885 79.0275 13.8562C78.9609 13.7762 78.7818 13.6848 78.639 13.6581L78.519 13.6334V13.4849C78.519 13.4011 78.5266 13.3345 78.5362 13.3345C78.5914 13.3345 78.9114 13.2697 79.0237 13.2374C79.2008 13.1841 79.4522 13.0679 79.4522 13.0393C79.4522 13.0146 79.2085 12.4777 79.1875 12.4529C79.1799 12.4453 79.0961 12.4739 79.0028 12.5177C78.6904 12.6624 78.3819 12.7119 78.0715 12.6681C77.681 12.6129 77.3668 12.4624 77.0811 12.1902C76.8316 11.9522 76.6392 11.6114 76.563 11.2725C76.5154 11.0649 76.5211 10.686 76.5726 10.4709C76.7421 9.78354 77.2868 9.25423 77.9648 9.11715C78.0886 9.09049 78.1819 9.08668 78.3648 9.0943C78.6428 9.10572 78.7666 9.13619 79.0104 9.25043C79.1056 9.29612 79.1856 9.33039 79.1856 9.32849C79.1856 9.32468 79.2504 9.18759 79.3285 9.02385L79.4713 8.72493L79.2942 8.64115C78.9037 8.45456 78.4181 8.38221 77.9496 8.44314Z" fill="#002F34"/>
<path d="M81.833 8.45455C81.0807 8.56879 80.3856 9.07525 80.0332 9.7664C79.7399 10.3414 79.6866 11.0535 79.8923 11.6666C80.1723 12.5005 80.8579 13.1041 81.7378 13.2907C81.9397 13.3326 82.4768 13.3383 82.6901 13.2983C83.0024 13.2412 83.3528 13.0927 83.6176 12.9042L83.7376 12.8185V12.3996V11.9807L83.5814 12.1121C83.2824 12.3596 83.01 12.5157 82.7148 12.6033C82.4882 12.6719 82.1206 12.6871 81.8883 12.6395C81.1988 12.5005 80.6712 11.9769 80.5055 11.2629C80.456 11.0459 80.4598 10.6746 80.5151 10.4499C80.5722 10.2157 80.7341 9.89777 80.8846 9.71689C81.2102 9.33229 81.6502 9.11524 82.1511 9.09429C82.4768 9.07906 82.7129 9.12856 83.0043 9.27517C83.2976 9.41987 83.57 9.6712 83.728 9.93966C83.9699 10.3528 84.0042 10.6365 84.0042 12.2435V13.2393H84.3375H84.6708V12.1007C84.6708 10.8612 84.6594 10.6498 84.5641 10.269C84.5108 10.0539 84.4594 9.91681 84.3527 9.70737C83.8956 8.8106 82.8634 8.29652 81.833 8.45455Z" fill="#002F34"/>
<path d="M87.3887 8.45263C86.3298 8.61638 85.509 9.41034 85.3242 10.448C85.2823 10.6841 85.2842 11.0839 85.328 11.3162C85.5223 12.3615 86.3393 13.1459 87.3945 13.3059C88.64 13.4963 89.8399 12.6814 90.1503 11.4362C90.1961 11.2553 90.2018 11.1925 90.2018 10.9164C90.2018 10.6936 90.1922 10.5546 90.1694 10.4366C89.9047 9.11141 88.6953 8.24891 87.3887 8.45263ZM88.0953 9.11903C88.7181 9.24659 89.2228 9.71116 89.419 10.3357C89.4914 10.568 89.5161 10.7545 89.5028 10.9983C89.4895 11.2572 89.4533 11.4038 89.3466 11.6342C89.2495 11.8417 89.1828 11.9426 89.0381 12.0988C88.8286 12.3234 88.5467 12.5005 88.2325 12.6033C88.082 12.6528 88.0477 12.6566 87.7563 12.6566C87.383 12.6585 87.2992 12.6395 86.985 12.4853C86.6155 12.3044 86.3698 12.0588 86.1851 11.6875C86.0422 11.4 85.9965 11.2077 85.9965 10.8878C85.9965 10.7507 86.0079 10.5889 86.0213 10.5261C86.1813 9.79684 86.7012 9.27325 87.4154 9.11712C87.583 9.08095 87.9163 9.08285 88.0953 9.11903Z" fill="#002F34"/>
<path d="M43.0056 17.2814C41.2806 17.4446 40.1792 17.8758 39.2468 18.7733C37.615 20.3292 37.1139 22.7419 37.9822 24.869C38.3668 25.8189 38.8738 26.4366 39.6139 26.8504L39.9519 27.0427L39.4682 27.3574C38.5824 27.9343 37.9064 28.721 37.5684 29.5719C37.312 30.2187 37.2421 30.6558 37.2479 31.6115C37.2479 32.3866 37.2712 32.5906 37.3936 33.0685C37.6733 34.1058 38.122 34.9042 38.8214 35.586C39.3517 36.1047 39.6605 36.3378 40.1501 36.5825C41.4205 37.2177 42.3179 37.3226 46.6071 37.3226H49.5617V36.1862V35.0499H47.1607C43.8215 35.0499 42.4228 34.9508 41.6711 34.6594C40.9718 34.3855 40.3249 33.7853 39.9985 33.0976C39.643 32.3633 39.5615 31.3493 39.7946 30.6034C40.051 29.7933 40.6629 29.0823 41.4147 28.7269C42.2422 28.3306 42.2771 28.3306 46.1117 28.3073L49.5617 28.284V27.1243V25.9704L46.3157 25.9413C43.2678 25.9179 43.0289 25.9121 42.5102 25.7956C42.2072 25.7256 41.7701 25.5799 41.5429 25.4634C40.7911 25.0962 40.2258 24.327 40.0335 23.4237C39.9286 22.9109 39.9286 22.6545 40.0335 22.1416C40.2375 21.1742 40.8144 20.4225 41.6594 20.0145C42.6268 19.5542 43.2737 19.4901 46.9276 19.4901H49.5617V18.3537V17.2173L46.5488 17.2231C44.8879 17.2289 43.297 17.2522 43.0056 17.2814Z" fill="#002F34"/>
<path d="M51.7759 23.1731C51.7759 29.0824 51.805 30.2537 51.9798 31.291C52.2712 33.016 52.9997 34.4263 54.171 35.5452C57.417 38.6339 62.5745 38.2026 65.3018 34.6128C66.2925 33.3132 66.8054 31.7573 66.8112 30.0672C66.817 26.3201 64.1246 23.2139 60.395 22.6603C59.2119 22.4855 57.7317 22.6253 56.7294 23.0041C56.0708 23.2489 55.2725 23.6976 54.7363 24.1172C54.6431 24.1872 54.6314 24.3212 54.6314 25.4576C54.6314 26.1511 54.6431 26.7163 54.6606 26.7163C54.678 26.7163 54.8937 26.5415 55.1326 26.3317C55.9951 25.5858 57.0266 25.0147 57.9823 24.7583C58.3028 24.6708 58.5942 24.6475 59.3227 24.6475C60.4183 24.6475 60.7155 24.7116 61.6013 25.1429C63.0057 25.8247 63.9731 26.9786 64.4568 28.5521C64.6083 29.0358 64.62 29.1523 64.62 30.0964C64.6258 31.192 64.5792 31.4484 64.2062 32.34C63.7342 33.4706 62.6386 34.5895 61.4847 35.1082C60.7097 35.4578 60.2842 35.5452 59.2935 35.5452C58.5243 35.5452 58.3203 35.5277 57.9299 35.4112C56.642 35.0382 55.5638 34.2806 54.8937 33.2783C54.4857 32.6605 54.3109 32.2701 54.1419 31.5999C53.8971 30.6325 53.8738 29.9973 53.8738 23.4296V17.2173H52.8249H51.7759V23.1731Z" fill="#002F34"/>
<path d="M105.687 17.433C105.588 17.6311 104.341 20.3118 104.341 20.3351C104.341 20.3526 104.732 20.3643 105.215 20.3643H106.084L107.267 18.9481C107.919 18.1731 108.485 17.4912 108.531 17.433C108.607 17.3397 108.531 17.3339 107.179 17.3339C105.874 17.3339 105.74 17.3455 105.687 17.433Z" fill="#002F34"/>
<path d="M74.7138 22.6429C71.5028 23.0858 68.9794 25.4401 68.3209 28.5987C68.1635 29.3563 68.1519 30.5743 68.2917 31.3785C68.5598 32.8995 69.2533 34.234 70.3372 35.3121C71.4503 36.4311 72.7033 37.0954 74.3525 37.4509C74.8478 37.5558 75.1217 37.5791 76.0775 37.5791C77.2896 37.5791 77.8199 37.5092 78.8747 37.2294C79.8654 36.9614 81.5205 36.3028 81.4797 36.1921C81.4622 36.1572 81.3457 35.7317 81.2116 35.2539C81.0776 34.7702 80.9552 34.3448 80.9436 34.304C80.9261 34.2515 80.827 34.2748 80.5822 34.3972C80.0985 34.642 78.968 35.0849 78.3969 35.2597C77.278 35.5919 75.6928 35.6793 74.6206 35.4578C74.0028 35.3355 73.2219 34.98 72.7091 34.5895L72.3944 34.3622L72.8664 33.9893C73.1229 33.7853 75.3548 32.0487 77.8199 30.1256C80.285 28.2024 82.3072 26.5998 82.3072 26.5649C82.313 26.4483 81.5147 25.3003 81.1533 24.8982C80.1626 23.8142 78.8339 23.0566 77.3887 22.7536C76.7127 22.6137 75.3374 22.5554 74.7138 22.6429ZM76.8759 24.5368C77.4586 24.6534 77.8141 24.7991 78.3036 25.1196C78.6999 25.3702 79.5333 26.1686 79.5041 26.256C79.4808 26.3201 71.1997 32.8354 71.1415 32.8354C71.0599 32.8354 70.6286 31.9846 70.4771 31.5242C70.3489 31.157 70.3372 31.0172 70.3372 30.0964C70.3431 28.8843 70.4655 28.3132 70.9258 27.3982C71.6776 25.918 73.2044 24.77 74.7837 24.5019C75.2733 24.4203 76.4038 24.4378 76.8759 24.5368Z" fill="#002F34"/>
<path d="M89.2133 22.6661C88.3159 22.806 87.4359 23.144 86.6317 23.6685C86.451 23.7909 86.0314 24.1638 85.6934 24.5018C84.9591 25.2419 84.5803 25.8422 84.2773 26.7571C83.881 27.9576 83.8694 28.1033 83.8461 32.9636L83.8228 37.3226H84.8426H85.8624L85.8857 33.1092C85.9032 29.5194 85.9207 28.8259 86.0023 28.3655C86.2296 27.1068 86.7133 26.2501 87.5699 25.5799C89.19 24.3095 91.2821 24.292 92.8906 25.5217C93.5782 26.0461 94.0211 26.6697 94.295 27.4856C94.5922 28.383 94.6097 28.6744 94.6097 33.1675V37.3226H95.6587H96.7077V33.8668C96.7018 31.9729 96.6785 29.9332 96.6494 29.3388C96.5503 27.3166 96.224 26.2268 95.3731 25.1021C93.9512 23.2139 91.6143 22.2931 89.2133 22.6661Z" fill="#002F34"/>
<path d="M105.134 22.6429C101.923 23.0858 99.3998 25.4401 98.7413 28.5987C98.5839 29.3563 98.5723 30.5743 98.7122 31.3785C98.9802 32.8995 99.6737 34.234 100.758 35.3121C101.871 36.4311 103.124 37.0954 104.773 37.4509C105.268 37.5558 105.542 37.5791 106.498 37.5791C107.71 37.5791 108.24 37.5092 109.295 37.2294C110.286 36.9614 111.941 36.3028 111.9 36.1921C111.883 36.1572 111.766 35.7317 111.632 35.2539C111.498 34.7702 111.376 34.3448 111.364 34.304C111.346 34.2515 111.247 34.2748 111.003 34.3972C110.519 34.642 109.388 35.0849 108.817 35.2597C107.698 35.5919 106.113 35.6793 105.041 35.4578C104.423 35.3355 103.642 34.98 103.13 34.5895L102.815 34.3622L103.287 33.9893C103.543 33.7853 105.775 32.0487 108.24 30.1256C110.705 28.2024 112.728 26.5998 112.728 26.5649C112.733 26.4483 111.935 25.3003 111.574 24.8982C110.583 23.8142 109.254 23.0566 107.809 22.7536C107.133 22.6137 105.758 22.5554 105.134 22.6429ZM107.296 24.5368C107.879 24.6534 108.235 24.7991 108.724 25.1196C109.12 25.3702 109.954 26.1686 109.925 26.256C109.901 26.3201 101.62 32.8354 101.562 32.8354C101.48 32.8354 101.049 31.9846 100.898 31.5242C100.769 31.157 100.758 31.0172 100.758 30.0964C100.763 28.8843 100.886 28.3132 101.346 27.3982C102.098 25.918 103.625 24.77 105.204 24.5019C105.694 24.4203 106.824 24.4378 107.296 24.5368Z" fill="#002F34"/>
<path d="M132.757 22.6429C129.546 23.0858 127.023 25.4401 126.364 28.5987C126.207 29.3563 126.195 30.5743 126.335 31.3785C126.603 32.8995 127.297 34.234 128.381 35.3121C129.494 36.4311 130.747 37.0954 132.396 37.4509C132.891 37.5558 133.165 37.5791 134.121 37.5791C135.333 37.5791 135.863 37.5092 136.918 37.2294C137.909 36.9614 139.564 36.3028 139.523 36.1921C139.506 36.1572 139.389 35.7317 139.255 35.2539C139.121 34.7702 138.999 34.3448 138.987 34.304C138.97 34.2515 138.87 34.2748 138.626 34.3972C138.142 34.642 137.011 35.0849 136.44 35.2597C135.321 35.5919 133.736 35.6793 132.664 35.4578C132.046 35.3355 131.265 34.98 130.753 34.5895L130.438 34.3622L130.91 33.9893C131.166 33.7853 133.398 32.0487 135.863 30.1256C138.328 28.2024 140.351 26.5998 140.351 26.5649C140.357 26.4483 139.558 25.3003 139.197 24.8982C138.206 23.8142 136.877 23.0566 135.432 22.7536C134.756 22.6137 133.381 22.5554 132.757 22.6429ZM134.919 24.5368C135.502 24.6534 135.858 24.7991 136.347 25.1196C136.743 25.3702 137.577 26.1686 137.548 26.256C137.524 26.3201 129.243 32.8354 129.185 32.8354C129.103 32.8354 128.672 31.9846 128.521 31.5242C128.392 31.157 128.381 31.0172 128.381 30.0964C128.387 28.8843 128.509 28.3132 128.969 27.3982C129.721 25.918 131.248 24.77 132.827 24.5019C133.317 24.4203 134.447 24.4378 134.919 24.5368Z" fill="#002F34"/>
<path d="M147.379 22.6428C145.147 22.9692 143.183 24.5077 142.402 26.5415C141.947 27.7129 141.872 28.7094 141.872 33.5463V37.3226H142.886H143.9L143.929 33.1675C143.946 29.6127 143.964 28.9425 144.051 28.4646C144.255 27.3341 144.622 26.5765 145.31 25.9005C146.213 25.003 147.379 24.5543 148.562 24.6475L149.04 24.6883L149.028 23.6452L149.01 22.6078L148.369 22.602C148.02 22.5962 147.571 22.6137 147.379 22.6428Z" fill="#002F34"/>
<path d="M113.666 23.7442V24.7349H117.518C120.577 24.7349 121.364 24.7524 121.341 24.8049C121.329 24.8457 119.546 27.5788 117.39 30.8831C115.228 34.1815 113.398 36.9846 113.328 37.1012L113.188 37.3226H119.284H125.379V36.3319V35.3412H121.178C117.838 35.3412 116.982 35.3238 117.005 35.2713C117.034 35.1955 125.001 22.9575 125.1 22.8235C125.146 22.771 124.004 22.7535 119.412 22.7535H113.666V23.7442Z" fill="#002F34"/>
</svg>
