<svg width="192" height="48" viewBox="0 0 192 48" fill="none" xmlns="http://www.w3.org/2000/svg">
<path d="M24.2665 3.14063V4.21875L23.4069 4.22813C22.9304 4.2375 22.51 4.2375 22.4727 4.22813C22.4259 4.22813 22.398 4.40625 22.398 4.64063V5.05313L23.3135 5.08125L24.2197 5.10937L24.2477 7.22813L24.2665 9.35627L21.9215 14.5406C20.6322 17.4 19.5578 19.7906 19.5298 19.8469C19.4924 19.9406 20.5201 19.9687 24.5 19.9687C28.4799 19.9687 29.5076 19.9406 29.4703 19.8469C29.4422 19.7906 28.4519 17.4375 27.2654 14.625L25.1073 9.5156V7.2844V5.0625H26.0509H26.9851L26.9571 4.65937L26.9291 4.26563L26.0228 4.2375L25.1073 4.20937V3.14063V2.0625H24.6869H24.2665V3.14063Z" fill="#009CA3"/>
<path d="M19.2215 25.0125V28.9406L15.4844 31.5843L11.7474 34.2375V36.4687V38.7L8.75779 40.425L5.76818 42.1406V44.0343V45.9375H13.046H20.3332L20.3612 42.2531L20.3893 38.5781L20.6509 37.8375C21.118 36.5156 21.8093 35.7 22.8744 35.2031C23.6031 34.875 24.201 34.7812 24.9765 34.875C26.6394 35.0812 27.7232 35.8219 28.4145 37.1906C28.891 38.1562 28.9377 38.5593 28.9377 42.3937V45.9375H35.9447H42.9516V44.0343V42.1406L40.1021 40.5L37.2526 38.8687L37.2339 36.675L37.2059 34.4719L33.4969 31.8L29.7785 29.1187V25.1062V21.0938H24.5H19.2215V25.0125ZM25.5744 23.6531C25.8547 23.8031 26.0509 24 26.2004 24.2812C26.4059 24.6656 26.4152 24.7875 26.4152 26.5969V28.5H24.5934H22.7717V26.6906C22.781 24.45 22.8837 24.0938 23.6592 23.6156C24.0796 23.3532 25.0512 23.3719 25.5744 23.6531Z" fill="#009CA3"/>
<path d="M58.8243 14.4212C57.2298 14.4212 56.1456 13.2292 56.1456 11.4692C56.1456 9.70922 57.2458 8.50922 58.8562 8.50922C60.0839 8.50922 61.0486 9.25322 61.2798 10.3892H60.6659C60.4267 9.56522 59.7252 9.06122 58.8323 9.06122C57.5806 9.06122 56.7435 10.0212 56.7435 11.4692C56.7435 12.9092 57.5806 13.8692 58.8323 13.8692C59.7331 13.8692 60.4506 13.3812 60.6978 12.6132H61.3116C61.0486 13.6932 60.052 14.4212 58.8243 14.4212ZM61.9137 12.3972C61.9137 11.2132 62.7428 10.3572 63.8749 10.3572C65.0069 10.3572 65.8361 11.2132 65.8361 12.3972C65.8361 13.5732 65.0069 14.4292 63.8749 14.4292C62.7428 14.4292 61.9137 13.5732 61.9137 12.3972ZM62.4717 12.3892C62.4717 13.3012 63.0458 13.9332 63.8749 13.9332C64.696 13.9332 65.278 13.3012 65.278 12.3892C65.278 11.4932 64.696 10.8532 63.8749 10.8532C63.0458 10.8532 62.4717 11.4932 62.4717 12.3892ZM67.2658 14.3332H66.7157V10.4612H67.194L67.2578 11.0132C67.4491 10.6052 67.8796 10.3572 68.4218 10.3572C69.0277 10.3572 69.4821 10.6772 69.6654 11.1812C69.8408 10.6772 70.3112 10.3572 70.933 10.3572C71.7701 10.3572 72.3202 10.9012 72.3202 11.7972V14.3332H71.7861V11.9092C71.7861 11.2452 71.4193 10.8532 70.8294 10.8532C70.1836 10.8532 69.801 11.3412 69.801 11.9412V14.3332H69.2588V11.9012C69.2588 11.2452 68.8841 10.8612 68.3022 10.8612C67.6564 10.8612 67.2658 11.3412 67.2658 11.9332V14.3332ZM76.1376 10.4612H76.6877V14.3332H76.2094L76.1376 13.6772C75.9224 14.1252 75.3882 14.4292 74.7823 14.4292C73.8735 14.4292 73.3792 13.8052 73.3792 12.8612V10.4532H73.9373V12.6852C73.9373 13.6052 74.3439 13.9332 74.9577 13.9332C75.6992 13.9332 76.1376 13.4372 76.1376 12.5172V10.4612ZM78.3838 14.3332H77.8337V10.4612H78.3121L78.3918 11.1332C78.6469 10.6372 79.1571 10.3572 79.7152 10.3572C80.7755 10.3572 81.214 10.9892 81.214 11.9652V14.3332H80.6639V12.0852C80.6639 11.1812 80.2573 10.8612 79.6195 10.8612C78.8303 10.8612 78.3838 11.4372 78.3838 12.3092V14.3332ZM82.5813 9.39722C82.358 9.39722 82.1747 9.21322 82.1747 8.98922C82.1747 8.76522 82.358 8.57322 82.5813 8.57322C82.8045 8.57322 82.9958 8.76522 82.9958 8.98922C82.9958 9.21322 82.8045 9.39722 82.5813 9.39722ZM82.3102 14.3332V10.4612H82.8603V14.3332H82.3102ZM85.5224 14.4292C84.3983 14.4292 83.7366 13.5652 83.7366 12.4052C83.7366 11.2372 84.3983 10.3572 85.5463 10.3572C86.1841 10.3572 86.6943 10.6372 86.9654 11.1972V8.50122H87.5155V14.3332H87.0371L86.9813 13.5412C86.7103 14.1412 86.1681 14.4292 85.5224 14.4292ZM85.618 13.9252C86.4631 13.9252 86.9574 13.2852 86.9574 12.3892C86.9574 11.5012 86.4631 10.8532 85.618 10.8532C84.781 10.8532 84.2946 11.5012 84.2946 12.3892C84.2946 13.2852 84.781 13.9252 85.618 13.9252ZM89.771 14.4292C88.9498 14.4292 88.4635 13.9652 88.4635 13.2852C88.4635 12.5732 89.0056 12.1252 89.9065 12.0532L91.1821 11.9492V11.8212C91.1821 11.0612 90.7276 10.8212 90.1616 10.8212C89.4919 10.8212 89.0933 11.1252 89.0933 11.6452H88.5911C88.5911 10.8612 89.2288 10.3572 90.1775 10.3572C91.0704 10.3572 91.7242 10.8052 91.7242 11.8292V14.3332H91.2618L91.19 13.6532C90.9509 14.1412 90.4247 14.4292 89.771 14.4292ZM89.8985 13.9812C90.7117 13.9812 91.1821 13.4132 91.1821 12.5732V12.3652L90.042 12.4532C89.3165 12.5172 89.0216 12.8372 89.0216 13.2692C89.0216 13.7412 89.3723 13.9812 89.8985 13.9812ZM94.3431 14.4292C93.219 14.4292 92.5573 13.5652 92.5573 12.4052C92.5573 11.2372 93.219 10.3572 94.367 10.3572C95.0048 10.3572 95.515 10.6372 95.7861 11.1972V8.50122H96.3362V14.3332H95.8578L95.802 13.5412C95.531 14.1412 94.9888 14.4292 94.3431 14.4292ZM94.4387 13.9252C95.2838 13.9252 95.7781 13.2852 95.7781 12.3892C95.7781 11.5012 95.2838 10.8532 94.4387 10.8532C93.6017 10.8532 93.1153 11.5012 93.1153 12.3892C93.1153 13.2852 93.6017 13.9252 94.4387 13.9252ZM99.1026 14.4292C97.9705 14.4292 97.2131 13.6132 97.2131 12.3972C97.2131 11.1892 97.9625 10.3572 99.0627 10.3572C100.107 10.3572 100.817 11.1012 100.817 12.1972V12.4692H97.7473C97.7871 13.4132 98.2814 13.9572 99.1105 13.9572C99.7403 13.9572 100.147 13.6852 100.29 13.1732H100.817C100.609 13.9892 100.011 14.4292 99.1026 14.4292ZM99.0627 10.8292C98.3372 10.8292 97.8589 11.3092 97.7632 12.0692H100.267C100.267 11.3252 99.7882 10.8292 99.0627 10.8292Z" fill="#002F34"/>
<path d="M70.6527 40.9999H56.1747V17.6079H70.6527V21.3839H60.2566V27.3999H69.5684V31.0159H60.2566V37.2239H70.6527V40.9999ZM78.1075 40.9999H74.504V17.1919H78.3945V27.4959C79.4149 25.7359 81.5196 24.6799 83.9113 24.6799C88.4077 24.6799 91.1502 28.1999 91.1502 33.1919C91.1502 38.0559 88.1845 41.4159 83.6562 41.4159C81.2964 41.4159 79.2874 40.3599 78.3626 38.5359L78.1075 40.9999ZM78.4263 33.0319C78.4263 35.8799 80.1803 37.8319 82.859 37.8319C85.6014 37.8319 87.2278 35.8479 87.2278 33.0319C87.2278 30.2159 85.6014 28.1999 82.859 28.1999C80.1803 28.1999 78.4263 30.1839 78.4263 33.0319ZM101.296 41.4159C96.6079 41.4159 93.3233 37.9919 93.3233 33.0959C93.3233 28.1359 96.5441 24.7119 101.168 24.7119C105.888 24.7119 108.885 27.8799 108.885 32.8079V33.9919L97.0224 34.0239C97.3095 36.8079 98.7764 38.2159 101.359 38.2159C103.496 38.2159 104.899 37.3839 105.346 35.8799H108.949C108.279 39.3359 105.409 41.4159 101.296 41.4159ZM101.2 27.9119C98.9039 27.9119 97.5008 29.1599 97.1181 31.5279H105.027C105.027 29.3519 103.528 27.9119 101.2 27.9119ZM115.889 40.9999H111.998V25.1919H115.602L115.921 27.2399C116.909 25.6399 118.823 24.7119 120.959 24.7119C124.914 24.7119 126.955 27.1759 126.955 31.2719V40.9999H123.064V32.1999C123.064 29.5439 121.757 28.2639 119.748 28.2639C117.356 28.2639 115.889 29.9279 115.889 32.4879V40.9999ZM142.353 18.5679L139.228 23.3039H136.358L138.75 18.5679H142.353ZM137.825 41.4159C133.137 41.4159 129.852 37.9919 129.852 33.0959C129.852 28.1359 133.073 24.7119 137.697 24.7119C142.417 24.7119 145.414 27.8799 145.414 32.8079V33.9919L133.552 34.0239C133.839 36.8079 135.306 38.2159 137.889 38.2159C140.025 38.2159 141.428 37.3839 141.875 35.8799H145.478C144.809 39.3359 141.938 41.4159 137.825 41.4159ZM137.729 27.9119C135.433 27.9119 134.03 29.1599 133.647 31.5279H141.556C141.556 29.3519 140.057 27.9119 137.729 27.9119ZM160.111 40.9999H147.388V37.7999L155.232 28.4559H147.388V25.1919H160.111V28.4239L152.139 37.7359H160.111V40.9999ZM170.15 41.4159C165.462 41.4159 162.178 37.9919 162.178 33.0959C162.178 28.1359 165.398 24.7119 170.022 24.7119C174.742 24.7119 177.74 27.8799 177.74 32.8079V33.9919L165.877 34.0239C166.164 36.8079 167.631 38.2159 170.214 38.2159C172.35 38.2159 173.753 37.3839 174.2 35.8799H177.803C177.134 39.3359 174.264 41.4159 170.15 41.4159ZM170.054 27.9119C167.758 27.9119 166.355 29.1599 165.972 31.5279H173.881C173.881 29.3519 172.382 27.9119 170.054 27.9119ZM190.739 25.1279V28.7439H189.304C186.498 28.7439 184.744 30.2479 184.744 33.3199V40.9999H180.853V25.2239H184.521L184.744 27.5279C185.414 25.9599 186.912 24.9039 189.017 24.9039C189.559 24.9039 190.101 24.9679 190.739 25.1279Z" fill="#002F34"/>
</svg>
